<svg xmlns="http://www.w3.org/2000/svg" version="1.1" xmlns:xlink="http://www.w3.org/1999/xlink" xmlns:svgjs="http://svgjs.dev/svgjs" viewBox="0 0 640 800"><defs><linearGradient x1="50%" y1="0%" x2="50%" y2="100%" id="ssscribble-grad"><stop stop-color="hsl(206, 75%, 49%)" stop-opacity="1" offset="0%"></stop><stop stop-color="hsl(331, 90%, 56%)" stop-opacity="1" offset="100%"></stop></linearGradient></defs><g fill="none" stroke-width="1.5" stroke="url(#ssscribble-grad)" stroke-linecap="round"><path d="M834.01 423.29C973.72 463.21 914.81 456.13 755.16 424.36 642.86 414.12 552.48 416.19 494.85 446.87 473.38 513.42 483.1 618.83 512.76 753.6 559.59 883.99 605.87 984.73 642.58 1017.96 675.02 972.45 690.94 858.66 691.12 722.66 684.31 637.93 665.89 647.11 639.87 761.84 611.5 930.9 579.85 1069.81 546.99 1096.75 514.13 995.3 481.61 825.24 448.01 681.91 412.06 634.48 370.7 696.9 320.56 823.6 263.44 956.93 193.4 1027.66 110.31 1012.32 22.95 920.25 -70.49 784.82 -160.39 649.27 -233.12 536.17 -281.8 468.95 -294.55 444.01 -271.13 455.41 -210.22 484.67 -122.01 514.29 4.19 559.89 25.05 564.14 -117.98 523 -236.33 490.14 -327.51 442.56 -369.16 380.28 -356.31 316.27 -290.4 236.11 -190.33 143.75 -75.38 57.19 31.46 -26.18 114.13 -88.24 165.74 -113.96 184.32 -93.93 177.17 -23.91 146.88 68.56 108.77 165.04 73.21 222.91 36.18 204.04 11.97 103.87 2.36 -53.53 -2.27 -204.33 6.14 -285.48 24.95 -250.76 45.85 -120.12 73.5 43.27 106.36 144.75 139.22 117.84 175.73 -14.38 216.81 -170.77 259.97 -272.84 311.33 -263.34 372.91 -154.54 439.47 5.54 517.8 148.81 605.48 228.55 691.69 229.56 776.97 167.79 850.33 80.47 900.55 -11.22 920.93 -69.46 903.54 -85.38 855.09 -65.42 777.7 -13.39 686.85 53.79 610.86 134.12 563.66 210.67 563.49 275.19 617.82 340.37 715.66 390.42 834.01 423.29Q834.01 423.29 834.01 423.29" opacity="0.99"></path><path d="M800.01 252.59C933.25 291.85 908.88 324.34 772 345.19 664.75 377.41 568.05 430.67 493.96 512 447.24 612.43 428.97 731.25 432.98 849.46 457.57 937.21 489.93 976.98 521.26 949.35 555.59 865.88 579.79 746.18 591.57 636.55 600.11 592.36 596.57 636.08 582.47 762.65 566.81 920.97 543.23 1042.11 512.72 1062.75 482.21 971.9 446.2 816.24 404.31 672.55 360.87 601.27 308.9 626.12 247.48 722.81 182.82 851.87 108.37 952.41 27.01 990.44 -51.34 960.09 -127.5 870.58 -192.08 752.65 -236.09 625.79 -253.99 519.4 -239.05 444.06 -196.73 397.42 -127.4 378.01 -42.52 373.57 63.3 387.25 52.34 384.08 -83.98 346.73 -194.24 316.21 -282.43 270.34 -329.72 212.04 -331.17 155.69 -284.59 91.93 -203 29.5 -100.67 -18.94 3.96 -49.79 95.5 -50.19 166.86 -21.89 211.47 40.68 231.55 127.55 228.51 205.49 211.61 258.83 189.59 257.43 159.96 187.64 135.84 59.74 121.4 -91.67 107.83 -210.74 105.94 -252.98 115.65 -193.5 126.4 -61.6 147.19 87.88 177.7 178.75 208.22 158.14 247 43.2 293.8 -103.33 341.64 -218.14 399.04 -244.52 465.49 -177.98 532.81 -45.99 607.17 101.06 683.84 216.32 752.88 275.74 813.59 272.15 856.62 224.41 876.54 146.2 868.1 71.18 828.52 17.77 768.75 -16.52 691.47 -19.54 611.52 1.1 552.29 37.74 523.08 84.03 536.31 130.23 595.37 179.98 689.75 222.07 800.01 252.59Q800.01 252.59 800.01 252.59" opacity="0.45"></path><path d="M766.01 173.32C860.37 201.49 923.84 228.67 946.05 257.52 927.34 290.13 869.95 331.3 786.79 386.48 689.73 452.02 593.88 535.97 511.03 635.75 446.06 734.61 403.98 829.74 382.84 901.66 381.57 933.06 392.76 914.76 409.27 843.94 433.51 745.53 454.14 640.25 467.14 567.26 480.47 562.77 483.7 633.91 476.22 765.32 468.16 910.03 450.1 1013.78 421.93 1028.75 393.77 948.09 356.82 807.5 311.76 667.44 266.13 578.53 211.66 568.96 149.52 630.35 87.7 739.54 20.69 849.07 -46.95 923.47 -106.87 949.51 -158.51 917.64 -194.14 843.22 -209.93 739.4 -201.24 630.09 -165.59 532.21 -112.08 445.91 -41.49 382.37 34.92 338.25 97.44 307.4 138.79 286.19 146.63 267.24 113.55 251.89 44.37 231.66 -49.98 203.49 -152.04 175.33 -236.45 140.56 -287.63 102.8 -301.24 68.62 -272.71 38.59 -210.4 20.62 -124.47 15.92 -28.6 33.07 63.63 75.95 145.92 130.42 209.44 199.29 252.64 266.21 276.39 303.72 284.21 302.2 282.25 246.85 269.68 143.13 256.3 8.34 247.08 -121.48 235.47 -203.54 232.13 -210.01 238.82 -131.99 245.5 -2.81 262.61 132.07 290.78 212.75 318.94 197.81 356.83 99.78 403.27 -34.05 449.7 -154.6 504.29 -209.73 564.7 -184.61 622.74 -90.98 682.51 39.55 738.48 167.29 800.17 293.29 808.3 262.32 740.27 179.52 677.36 123.15 606.75 85.58 541.46 68.85 499.8 62.49 487.3 72.56 511.78 93.07 573.83 117.34 663.95 145.16 766.01 173.32Q766.01 173.32 766.01 173.32" opacity="0.49"></path><path d="M732.01 234.66C819.29 260.48 881.32 295.69 909.45 340.72 903.62 387.64 863.36 447.2 797.47 519.28 714.47 592.69 625.76 674.43 541.85 756.19 466.94 823.01 408.03 870.8 366.21 885.9 340.53 865.53 328.56 806.52 325.49 717.23 336.02 588.53 354.86 594.09 349.11 768.92 342.75 897.82 327.07 984.81 301.25 994.75 275.43 923.85 240.7 798.75 198.36 665.86 156.33 565.82 107.54 527.14 54.47 552.21 4.2 630.58 -46.46 729.81 -92.71 819.2 -129.43 884.56 -154.53 905.66 -162.7 884.48 -154.71 828.07 -126.41 748.64 -78.39 661.98 -21.36 569.95 44.18 487.85 108.25 420.05 155.22 358.6 180.78 310.42 176.65 272.57 138.55 237.58 71.29 207.97 -15.98 182.15 -109.75 156.33 -189.61 135.52 -243.01 121.82 -266.48 110.96 -254.12 112.17 -210.8 128.88 -143.51 151.93 -61.51 191.5 24.11 243.74 108.29 290.61 181.82 332.98 240.91 355.56 286.28 342.91 316.95 291.21 336.21 198.97 344.92 82.7 348.48 -39.67 351.27 -136.98 349.95 -180.99 352.55 -157.03 361.66 -66.97 370.02 55.94 386.56 175.82 412.38 246.74 438.2 236.83 472.07 155.08 512.41 36.15 551.99 -83.61 596.36 -159.14 642.43 -170.71 684.38 -119.62 723.34 -20.76 754.43 96.97 774.96 213.14 781.36 302.77 769.83 356.98 744.57 375.73 701.66 365.01 644.37 337.98 585.62 296.01 526.78 256.79 478.4 228.13 454.02 200.79 456.35 188.2 489.78 189.97 553.15 193.64 638.24 208.84 732.01 234.66Q732.01 234.66 732.01 234.66" opacity="0.66"></path><path d="M698.05 398.56C778.06 422.03 837.75 457.8 870.13 504.27 875.15 550.32 850.59 605.6 802.1 666.05 735.61 720.9 658.99 772.77 580.88 812.81 504.54 834.12 437.26 831.58 381.96 799.54 337.59 746.39 305.43 671.84 283.09 589.1 269.55 523.32 261.05 485.23 254.11 492.03 250.97 549.7 245.4 650.15 235.07 772.45 225.55 884.07 209.57 955.19 186.1 960.76 162.62 899.15 132.78 789.67 98.02 666.95 64.09 562.19 26.96 501.38 -10.57 493.02 -44.3 535.31 -74.46 609.52 -97.09 692.96 -110.93 774.39 -112.46 830.81 -98.85 855.59 -74.32 851.83 -34.87 819.54 17.02 768.82 70.7 703.07 126.26 633.7 175.55 568.54 206.84 501.87 218.04 444.73 203.96 398.94 162.52 353.96 98.07 319.46 18.06 295.99 -67.34 272.51 -141.97 261.18 -195.96 261.9 -226.89 263.42 -228.36 277.86 -202.76 303.85 -154.81 328.33 -90 359.06 -16.74 388.62 61.14 403.17 135.52 401.76 201.64 374.76 260.28 319.22 307.6 234.96 344.39 129.09 372.88 21.21 394.19 -74.04 411.3 -133.53 424.11 -142.38 436.74 -94.93 451.59 0.77 465.36 114.42 483.48 219.15 506.95 280.76 530.42 275.19 558.14 208.83 588.62 106.27 618.04 -6.97 648.11 -94.06 675.98 -134.53 699.55 -124.13 716.9 -64.99 724.59 25.23 723.98 132.41 710.35 234.79 682.48 318.7 647.13 381.5 600.58 417.75 547.12 432.61 498.3 428.75 454.54 415.53 423.8 401.36 415.39 381.59 430.21 369 470.19 367.22 533.23 365.01 612.61 375.08 698.01 398.55Q698.05 398.56 698.05 398.56" opacity="0.59"></path><path d="M663.65 563.23C736.29 584.36 792.89 612.8 828.01 646.36 841.82 678.19 831.13 711.55 799.28 741.69 750.36 764.29 689.16 776.47 622.26 772.66 552.04 755.1 484.93 717.95 424.56 662.33 369.75 601.75 324.01 536.54 286.99 479.55 256.38 448.39 232.12 448.34 212.1 487.22 195.62 562.48 180.24 664.64 164.11 774.83 148.91 868.43 131.14 924.78 110.02 926.65 88.89 873.84 65.42 779.83 40.77 669.69 17.06 566.16 -5.98 491.09 -26.1 455.41 -42.69 462.06 -53.23 503.13 -55.17 564.41 -50.71 638.92 -35.3 706.81 -8.17 757.99 24.5 793.91 66.56 806.11 114.79 797.97 159.68 774.35 201.94 738.59 235.38 697.64 251.74 650.63 250.41 605.57 228.45 566.65 185.18 526.74 124.29 495.28 51.65 474.16 -25.31 453.03 -94.03 443.23 -146.99 443.3 -189.06 445.69 -132.52 464.24 -52.15 455.79 13.16 431.38 80.33 388.86 144.63 325.26 206.89 246.4 262.1 153.46 309.25 56.95 351.36 -26.32 386.35 -86.34 415.53 -108.49 441.36 -88.31 464.04 -25.28 485.1 70.08 505.18 172.08 525.5 261.81 546.62 314.64 567.75 312.79 588.68 260.74 608.44 175.3 627.21 73.25 642.97 -16.88 653.74 -76.67 661.18 -100.07 660.98 -81.08 651.42 -27.93 636.83 51.04 611.95 141.3 577.38 229.57 540.77 312.89 498.65 380.36 455.32 430.48 406.43 478.16 396.33 512.47 452.57 523.02 513.69 529.3 586.68 542.11 663.65 563.23Q663.65 563.23 663.65 563.23" opacity="0.30"></path><path d="M630.04 626.79C695.05 645.57 747.61 663.24 783.65 678.39 803.72 691.89 804.28 699.79 787.12 699.27 755.12 693.56 710.66 675.95 658.39 645.18 600 609.39 540.39 562.98 483.13 510.64 427.01 465.26 376.32 426.98 332.05 405.28 291.26 409.46 256.42 441.19 226.83 501.8 199.69 584.47 175.95 680.79 154.64 775.44 134.08 851.01 114.55 893.92 95.77 892.75 76.99 848.18 59.86 769.25 45 673.38 30.9 576.31 20.48 495.01 15.08 440.29 12.12 416.74 16.04 423.67 27.89 454.06 43.22 504.59 66.95 561.57 98.46 615.47 131.11 667.4 168.45 705.75 207.29 728.89 253.82 742.43 283.64 705.17 250.71 671.9 207.42 647.67 151.05 625.28 86.04 606.5 17.56 587.72 -44.77 573.45 -95.44 562.26 -134.04 549.47 -154.78 536.6 -157.52 520.38 -144.72 498.09 -116.64 467.27 -77.15 424.73 -28.35 372.65 25.63 307.34 80.82 230.8 137.84 152.29 191.88 73.05 241.01 2.96 288.32 -46.96 329.98 -70.74 365.89 -60.95 399.92 -19.99 429.36 50.6 454.69 140.43 479.37 229.05 501.1 304.18 519.88 348.75 538.66 349.91 553.6 310.82 564.33 242.49 574.42 155.08 579.14 69.45 577.65 0.55 574.29 -46.29 563.55 -61.18 545.18 -45.81 525 -4.55 497.91 55.97 465.5 125.96 434.93 202.92 403.2 276.29 373.95 341.02 354 400.73 342.76 449.26 343.72 487.51 360.22 520.58 391.64 546.83 437.48 568.75 495.39 589.01 561.52 608.01 630 626.78Q630.04 626.79 630.04 626.79" opacity="0.86"></path><path d="M596 549.51C703.93 582.38 763.16 584.84 765.33 554.01 720.65 518.17 639.15 452.56 546.4 384.89 446.7 364.38 359.12 407.27 291.33 530.92 228.1 693.65 180.02 831.83 147.16 858.74 114.3 757.26 99.77 587.98 106.05 445.77 116.89 380.3 153.19 400.91 209.81 465.41 259.5 556.37 306.14 621.34 326.73 646.38 300.48 658.86 227.93 643.54 120 610.68 1.65 577.82 -84.36 530.53 -119.53 461.1 -109.06 379.11 -53.53 262.86 24.36 128.83 117.47 21.25 206.34 -34.2 278.47 7.18 348.68 125.3 401.66 281.26 434.52 382.74 467.38 355.83 477.01 230.97 463.75 92.33 448.57 -7.22 410.99 -15.26 360.95 48.3 326.12 159.05 305.44 275.94 319.06 368.73 378.31 456.5 477.65 516.65 596 549.51Q596 549.51 596 549.51" opacity="0.36"></path><path d="M562.05 379.55C686.1 405.91 691.44 340.41 601 317.62 523.38 352.03 448.26 437.4 386.11 568.73 324.33 706.37 277.37 809.79 249.2 824.76 221.03 744.1 214.33 604.26 227.3 468.39 240.63 371.77 271.8 336.59 312.5 348.14 341.18 396.97 361 448.13 357.35 478.95 319.22 509.78 248.39 512.29 154.05 484.13 51.98 455.97 -27.75 399.81 -71.53 320.16 -84.17 240.54 -60.25 145.41 -13.2 59.66 50.46 11.17 118.51 16.47 178.23 92.42 239.67 207.64 287.35 336.07 315.51 416.75 343.69 401.81 349.68 309.81 337.06 192.81 314.11 54.36 268.14 110.8 304.39 217.39 368.81 294.1 459.95 351.38 562.01 379.54Q562.05 379.55 562.05 379.55" opacity="0.72"></path><path d="M528.05 222.22C608.06 245.69 664.12 253.24 691 253.16 695.03 261.99 673.21 280.31 635.32 322.59 585.47 391.08 531.94 491 484.23 608.45 434.63 713.98 395.49 785.19 372.02 790.76 348.55 729.15 342.97 620.21 351.89 502.75 358.92 397.68 375.82 327.47 394.9 293.43 402.03 289.46 398.95 301.5 377.72 311.78 333.64 328.51 268.06 328.87 188.05 305.4 102.64 281.93 32.1 236.85 -14.29 179.44 -41.74 128.48 -42.32 79.81 -22.7 53.01 10.54 56.28 52.56 101.6 93.6 189.45 137.72 289.69 174.38 389.12 197.85 450.75 221.33 445.2 229.39 383.52 225.95 295.19 225.59 194.94 220.2 119.91 217.71 82.17 228.85 70.65 254.32 88.97 298.97 120.81 362.56 161.57 442.61 198.74 528.01 222.21Q528.05 222.22 528.05 222.22" opacity="0.67"></path><path d="M494.01 175.16C559.04 193.94 608.53 215.58 638.99 243.22 656.19 276.48 655.18 324.7 640.66 390.54 617.32 465.38 587.57 554.12 557.86 643.04 525.87 714.52 498.38 757.9 479.6 756.75 460.82 712.2 452.53 633.52 451.98 542.39 449.15 448.73 449.6 369.12 448.32 311 438.24 268.66 419.33 243.05 388.37 226.6 344.14 216.21 287.04 204.12 222.01 185.34 153.53 166.56 94.59 142.87 50.97 120.72 17.18 104.63 1.26 100.93 0.82 118.66 9.14 152.17 27.1 211.86 49.03 291.76 73.64 369.13 97.26 440.2 116.04 484.75 134.82 485.9 146.98 450.13 154.9 392.42 165.52 317.25 176.87 248.43 193.16 198.2 218.21 156.98 254.05 138.06 301.59 137.34 358.98 142.25 425.53 156.38 494.01 175.16Q494.01 175.16 494.01 175.16" opacity="0.91"></path><path d="M460.05 267.58C554.39 295.74 605.65 375.61 612.66 492.18 600.27 604.94 568.5 707.79 540.34 722.76 512.17 642.09 492.93 503.74 468.41 387.61 424.48 287.55 350.39 226.61 256.05 198.45 153.97 170.28 83.66 180.21 57.48 243.36 48.05 322.57 65.83 438.09 94 518.76 122.16 503.79 155.39 423.77 201.73 347.93 264.82 268.27 357.97 239.41 460.05 267.58Q460.05 267.58 460.05 267.58" opacity="0.26"></path><path d="M426.01 442.12C546.68 479.68 574.02 647.44 536.47 688.75 498.91 565 410.68 374.12 290.01 336.56 155.85 299.01 100.67 429 138.23 552.75 175.78 511.44 291.85 404.57 426.01 442.12Q426.01 442.12 426.01 442.12" opacity="0.85"></path></g></svg>